<svg version="1.2" xmlns="http://www.w3.org/2000/svg" viewBox="0 0 3710 3710" width="720" height="720"><defs><linearGradient id="P" gradientUnits="userSpaceOnUse"/><linearGradient id="g1" x1="3238.3" y1="757.6" x2="3359.1" y2="1719.8" href="#P"><stop offset="0" stop-color="#e38ddd"/><stop offset="1" stop-color="#9571f6"/></linearGradient><linearGradient id="g2" x1="1975.6" y1="3299.6" x2="1805.3" y2="3371.1" href="#P"><stop stop-color="#40447e"/><stop offset="1" stop-color="#3c3b6b"/></linearGradient><linearGradient id="g3" x1="2020.7" y1="3127.7" x2="1838.7" y2="3204.2" href="#P"><stop stop-color="#40447e"/><stop offset="1" stop-color="#3c3b6b"/></linearGradient><linearGradient id="g4" x1="942.8" y1="1832.5" x2="2606.4" y2="1832.5" href="#P"><stop stop-color="#40447e"/><stop offset="1" stop-color="#3c3b6b"/></linearGradient><linearGradient id="g5" x1="2525.5" y1="2357.1" x2="1229.7" y2="4475.5" href="#P"><stop stop-color="#ffc444"/><stop offset="1" stop-color="#f36f56"/></linearGradient><linearGradient id="g6" x1="942.8" y1="2936.9" x2="3297.5" y2="2936.9" href="#P"><stop stop-color="#40447e"/><stop offset="1" stop-color="#3c3b6b"/></linearGradient><linearGradient id="g7" x1="1173.8" y1="2958.3" x2="2899" y2="2958.3" href="#P"><stop stop-color="#40447e"/><stop offset="1" stop-color="#3c3b6b"/></linearGradient><linearGradient id="g8" x1="2533.5" y1="1425.6" x2="2988.9" y2="1425.6" href="#P"><stop stop-color="#ff9085"/><stop offset="1" stop-color="#fb6fbb"/></linearGradient><linearGradient id="g9" x1="1470.3" y1="2449.8" x2="2816.3" y2="2449.8" href="#P"><stop stop-color="#aa80f9"/><stop offset="1" stop-color="#6165d7"/></linearGradient><linearGradient id="g10" x1="2504" y1="2358.9" x2="2959.4" y2="2358.9" href="#P"><stop stop-color="#aa80f9"/><stop offset="1" stop-color="#6165d7"/></linearGradient><linearGradient id="g11" x1="1253.2" y1="1896" x2="672.8" y2="1896" href="#P"><stop stop-color="#aa80f9"/><stop offset="1" stop-color="#6165d7"/></linearGradient><linearGradient id="g12" x1="1334.5" y1="1039.9" x2="1340" y2="1543.9" href="#P"><stop stop-color="#444b8c"/><stop offset="1" stop-color="#26264f"/></linearGradient><linearGradient id="g13" x1="909.1" y1="1952.5" x2="1000.8" y2="2284.9" href="#P"><stop stop-color="#ff9085"/><stop offset="1" stop-color="#fb6fbb"/></linearGradient><linearGradient id="g14" x1="992.8" y1="3011.7" x2="971.7" y2="3390.3" href="#P"><stop stop-color="#444b8c"/><stop offset="1" stop-color="#26264f"/></linearGradient><linearGradient id="g15" x1="996.5" y1="3199.2" x2="1006.8" y2="2730" href="#P"><stop stop-color="#ffc444"/><stop offset="1" stop-color="#f36f56"/></linearGradient><linearGradient id="g16" x1="585.2" y1="3021.5" x2="564.9" y2="3388.3" href="#P"><stop stop-color="#444b8c"/><stop offset="1" stop-color="#26264f"/></linearGradient><linearGradient id="g17" x1="742.1" y1="3221.5" x2="752.9" y2="2728.1" href="#P"><stop stop-color="#ffc444"/><stop offset="1" stop-color="#f36f56"/></linearGradient><linearGradient id="g18" x1="2192.7" y1="2144.7" x2="1960.6" y2="1833.3" href="#P"><stop stop-color="#444b8c"/><stop offset="1" stop-color="#26264f"/></linearGradient><linearGradient id="g19" x1="1727.3" y1="2510.2" x2="912.4" y2="1750.2" href="#P"><stop stop-color="#444b8c"/><stop offset="1" stop-color="#26264f"/></linearGradient><linearGradient id="g20" x1="2494" y1="1889.8" x2="2273.8" y2="1594.3" href="#P"><stop stop-color="#444b8c"/><stop offset="1" stop-color="#26264f"/></linearGradient><linearGradient id="g21" x1="453.1" y1="1562.3" x2="-11.7" y2="2172.4" href="#P"><stop stop-color="#ff9085"/><stop offset="1" stop-color="#fb6fbb"/></linearGradient><linearGradient id="g22" x1="240.2" y1="1645.7" x2="120.9" y2="2375" href="#P"><stop stop-color="#ff9085"/><stop offset="1" stop-color="#fb6fbb"/></linearGradient><linearGradient id="g23" x1="1031.3" y1="1641.1" x2="996.1" y2="1833.1" href="#P"><stop stop-color="#311944"/><stop offset="1" stop-color="#a03976"/></linearGradient><linearGradient id="g24" x1="988.6" y1="1580.9" x2="1005.6" y2="1675.8" href="#P"><stop stop-color="#311944"/><stop offset="1" stop-color="#a03976"/></linearGradient><linearGradient id="g25" x1="1160.8" y1="1443.6" x2="1207.3" y2="1443.6" href="#P"><stop stop-color="#311944"/><stop offset="1" stop-color="#a03976"/></linearGradient><linearGradient id="g26" x1="878.5" y1="1826.3" x2="607.4" y2="1826.3" href="#P"><stop stop-color="#ff9085"/><stop offset="1" stop-color="#fb6fbb"/></linearGradient><linearGradient id="g27" x1="1254.5" y1="2421.2" x2="1230.5" y2="2210.4" href="#P"><stop stop-color="#aa80f9"/><stop offset="1" stop-color="#6165d7"/></linearGradient><linearGradient id="g28" x1="855.7" y1="1967.3" x2="935.9" y2="1967.3" href="#P"><stop stop-color="#311944"/><stop offset="1" stop-color="#a03976"/></linearGradient><linearGradient id="g29" x1="2311.7" y1="2535.1" x2="2277.6" y2="2852.3" href="#P"><stop stop-color="#ffc444"/><stop offset="1" stop-color="#f36f56"/></linearGradient><linearGradient id="g30" x1="1948.4" y1="2535" x2="2936.7" y2="2886.4" href="#P"><stop stop-color="#ff9085"/><stop offset="1" stop-color="#fb6fbb"/></linearGradient><linearGradient id="g31" x1="3373.9" y1="2582.4" x2="2967.7" y2="1727.9" href="#P"><stop stop-color="#ff9085"/><stop offset="1" stop-color="#fb6fbb"/></linearGradient><linearGradient id="g32" x1="2790.3" y1="2264.3" x2="2669.1" y2="2060.5" href="#P"><stop stop-color="#ffc444"/><stop offset="1" stop-color="#f36f56"/></linearGradient><linearGradient id="g33" x1="2706.4" y1="2287.6" x2="2578.5" y2="2134" href="#P"><stop stop-color="#311944"/><stop offset="1" stop-color="#a03976"/></linearGradient><linearGradient id="g34" x1="2627.8" y1="2138.2" x2="2686.9" y2="2351.6" href="#P"><stop stop-color="#ffc444"/><stop offset="1" stop-color="#f36f56"/></linearGradient><linearGradient id="g35" x1="2735.9" y1="2307.6" x2="2555.4" y2="2090.8" href="#P"><stop stop-color="#311944"/><stop offset="1" stop-color="#a03976"/></linearGradient><linearGradient id="g36" x1="2645.9" y1="2160.2" x2="2658.3" y2="2187.2" href="#P"><stop stop-color="#ffc444"/><stop offset="1" stop-color="#f36f56"/></linearGradient><linearGradient id="g37" x1="3104.5" y1="2646.4" x2="2589.2" y2="1562.4" href="#P"><stop stop-color="#ff9085"/><stop offset="1" stop-color="#fb6fbb"/></linearGradient><linearGradient id="g38" x1="2900.1" y1="2586" x2="2853.1" y2="3022.1" href="#P"><stop stop-color="#ffc444"/><stop offset="1" stop-color="#f36f56"/></linearGradient><linearGradient id="g39" x1="3513.6" y1="2518.8" x2="3087.1" y2="1621.6" href="#P"><stop stop-color="#ff9085"/><stop offset="1" stop-color="#fb6fbb"/></linearGradient><linearGradient id="g40" x1="2711.1" y1="2220.9" x2="2160" y2="1636.3" href="#P"><stop stop-color="#aa80f9"/><stop offset="1" stop-color="#6165d7"/></linearGradient><linearGradient id="g41" x1="2301.2" y1="2242.5" x2="2101.7" y2="1459.3" href="#P"><stop stop-color="#aa80f9"/><stop offset="1" stop-color="#6165d7"/></linearGradient><linearGradient id="g42" x1="2833.1" y1="1228.7" x2="2770.8" y2="1228.7" href="#P"><stop stop-color="#fcb148"/><stop offset=".32" stop-color="#ffc444"/><stop offset=".87" stop-color="#f8924f"/><stop offset="1" stop-color="#f8924f"/></linearGradient><linearGradient id="g43" x1="2895.2" y1="1071.3" x2="3008.1" y2="1401.4" href="#P"><stop stop-color="#444b8c"/><stop offset="1" stop-color="#26264f"/></linearGradient><linearGradient id="g44" x1="2745.7" y1="1199.2" x2="2736.1" y2="1445.9" href="#P"><stop stop-color="#fcb148"/><stop offset=".32" stop-color="#ffc444"/><stop offset=".87" stop-color="#f8924f"/><stop offset="1" stop-color="#f8924f"/></linearGradient><linearGradient id="g45" x1="2770.5" y1="1021.9" x2="2931.6" y2="1493.1" href="#P"><stop stop-color="#444b8c"/><stop offset="1" stop-color="#26264f"/></linearGradient><linearGradient id="g46" x1="2351.8" y1="2236.9" x2="2139.4" y2="1485.9" href="#P"><stop stop-color="#aa80f9"/><stop offset="1" stop-color="#6165d7"/></linearGradient><linearGradient id="g47" x1="2875.2" y1="1959.8" x2="2399.3" y2="1455" href="#P"><stop stop-color="#aa80f9"/><stop offset="1" stop-color="#6165d7"/></linearGradient><linearGradient id="g48" x1="2595.6" y1="2044.7" x2="2673.8" y2="1261.4" href="#P"><stop stop-color="#aa80f9"/><stop offset="1" stop-color="#6165d7"/></linearGradient><linearGradient id="g49" x1="2735.1" y1="1785.6" x2="2760.4" y2="1440.3" href="#P"><stop stop-color="#aa80f9"/><stop offset="1" stop-color="#6165d7"/></linearGradient><linearGradient id="g50" x1="2542.5" y1="1909.5" x2="2586.9" y2="1303.7" href="#P"><stop stop-color="#aa80f9"/><stop offset="1" stop-color="#6165d7"/></linearGradient><linearGradient id="g51" x1="2922.4" y1="1563.7" x2="2858.5" y2="1563.7" href="#P"><stop stop-color="#fcb148"/><stop offset=".32" stop-color="#ffc444"/><stop offset=".87" stop-color="#f8924f"/><stop offset="1" stop-color="#f8924f"/></linearGradient><linearGradient id="g52" x1="2682" y1="1533.9" x2="2630.3" y2="1533.9" href="#P"><stop stop-color="#fcb148"/><stop offset=".32" stop-color="#ffc444"/><stop offset=".87" stop-color="#f8924f"/><stop offset="1" stop-color="#f8924f"/></linearGradient><linearGradient id="g53" x1="2801.9" y1="1276.2" x2="2806.6" y2="1361.4" href="#P"><stop stop-color="#444b8c"/><stop offset="1" stop-color="#26264f"/></linearGradient><linearGradient id="g54" x1="2559.5" y1="1444.5" x2="2562.1" y2="1249.1" href="#P"><stop stop-color="#444b8c"/><stop offset="1" stop-color="#26264f"/></linearGradient><linearGradient id="g55" x1="1099.7" y1="1488.4" x2="3856" y2="-2051.5" href="#P"><stop stop-color="#ab316d"/><stop offset="1" stop-color="#792d3d"/></linearGradient><linearGradient id="g56" x1="1477.9" y1="1213.6" x2="1962.4" y2="591.4" href="#P"><stop stop-color="#fcb148"/><stop offset=".32" stop-color="#ffc444"/><stop offset=".87" stop-color="#f8924f"/><stop offset="1" stop-color="#f8924f"/></linearGradient><linearGradient id="g57" x1="1990.2" y1="1417.7" x2="1697.8" y2="674" href="#P"><stop stop-color="#fcb148"/><stop offset=".32" stop-color="#ffc444"/><stop offset=".87" stop-color="#f8924f"/><stop offset="1" stop-color="#f8924f"/></linearGradient><linearGradient id="g58" x1="1853.3" y1="1494.1" x2="2495.8" y2="669" href="#P"><stop stop-color="#fcb148"/><stop offset=".32" stop-color="#ffc444"/><stop offset=".87" stop-color="#f8924f"/><stop offset="1" stop-color="#f8924f"/></linearGradient><linearGradient id="g59" x1="2604.9" y1="824.6" x2="2430" y2="1174.4" href="#P"><stop stop-color="#ff9085"/><stop offset="1" stop-color="#fb6fbb"/></linearGradient></defs><style>.a{fill:#f4f7fa}.b{fill:#d8dee8}.c{fill:#fff}.d{fill:url(#g1)}.e{fill:#fcfdfe}.f{fill:url(#g2)}.g{fill:url(#g3)}.h{fill:url(#g4)}.i{fill:url(#g5)}.j{opacity:.5;mix-blend-mode:soft-light;fill:#fff}.k{fill:url(#g6)}.l{opacity:.3;mix-blend-mode:multiply;fill:url(#g7)}.m{fill:url(#g8)}.n{mix-blend-mode:soft-light;fill:#fff}.o{fill:url(#g9)}.p{fill:url(#g10)}.q{fill:url(#g11)}.r{fill:url(#g12)}.s{fill:url(#g13)}.t{fill:url(#g14)}.u{fill:url(#g15)}.v{fill:url(#g16)}.w{fill:url(#g17)}.x{fill:url(#g18)}.y{fill:url(#g19)}.z{opacity:.3;mix-blend-mode:multiply;fill:url(#g20)}.A{fill:url(#g21)}.B{fill:url(#g22)}.C{fill:url(#g23)}.D{fill:url(#g24)}.E{fill:url(#g25)}.F{fill:url(#g26)}.G{opacity:.3;mix-blend-mode:multiply;fill:url(#g27)}.H{fill:url(#g28)}.I{fill:url(#g29)}.J{fill:url(#g30)}.K{fill:url(#g31)}.L{fill:url(#g32)}.M{fill:url(#g33)}.N{fill:url(#g34)}.O{fill:url(#g35)}.P{fill:url(#g36)}.Q{opacity:.3;mix-blend-mode:multiply;fill:url(#g37)}.R{fill:url(#g38)}.S{fill:url(#g39)}.T{fill:url(#g40)}.U{fill:url(#g41)}.V{fill:url(#g42)}.W{fill:url(#g43)}.X{fill:url(#g44)}.Y{fill:url(#g45)}.Z{opacity:.3;mix-blend-mode:multiply;fill:url(#g46)}.a0{fill:url(#g47)}.a1{fill:url(#g48)}.a2{opacity:.3;mix-blend-mode:multiply;fill:url(#g49)}.a3{opacity:.3;mix-blend-mode:multiply;fill:url(#g50)}.a4{fill:url(#g51)}.a5{fill:url(#g52)}.a6{fill:url(#g53)}.a7{fill:url(#g54)}.a8{fill:url(#g55)}.a9{fill:url(#g56)}.aa{fill:url(#g57)}.ab{fill:url(#g58)}.ac{fill:url(#g59)}</style><path class="a" d="m3003.2 2643.6c-577.7 738.9-1930.4 750.7-2304.8 340.3-149.5-163.7-188.9-445-247-858.2-27.9-198.9-31.9-359.2-34.2-469.2-8.2-374.1-12.3-561.2 47.9-688.5 172.6-364.4 771.9-506.2 1159.3-512.7q40.6-0.7 81.8 0.5c453.6 13.5 965.5 202.3 1281.2 605.8 32.6 41.6 63.1 85.6 91.2 131.8 288.2 473.9 239.7 1047.2-75.4 1450.2z"/><path class="b" d="m1897.6 2057.1c79.1-55.9 93.2-202.2 73.9-300.4-22.6-114.6-81.8-117.7-92.5-208.2-19.8-168.5 177.3-227.1 170.8-398.7-5.3-140.2-139.1-154.3-137.9-309.9 0.8-112.2 70.9-158.9 39.4-256.8-2.7-8.4-33-98.3-109.7-119.3-77.5-21.2-157 40.1-196.4 89.6-72.6 91.4-18.8 155.6-65.3 295.5-63.1 190.6-200.3 184.3-217.8 334.2-14.5 123.8 75.7 156.6 56.9 293.5-17.4 127.2-101.5 145.1-105 231.8-8.1 199.4 422.3 462.6 583.6 348.7z"/><g style="opacity:.7;mix-blend-mode:soft-light"><path class="c" d="m1783.5 2150.7q-0.7 0-1.3-0.3c-74.3-43.6-136.1-100.9-183.9-170.1-45.3-65.7-92.2-133.7-88.4-218.6 2.9-64.7 33-99.2 71-142.9 36.4-41.7 81.5-93.6 113.1-189.7 18.1-54.8 40.6-123 23.2-204.8-10-47.4-28.6-74.2-44.9-97.9-17.2-24.8-32-46.2-29.2-82.9 4.6-58.9 36-96.5 72.4-140 22.1-26.4 44.9-53.7 64.9-89.1 56.3-99.7 57.8-233.8 4.4-398.8-0.4-1.4 0.4-2.9 1.8-3.4 1.4-0.4 3 0.3 3.4 1.8 53.8 166.4 52.2 302-4.9 403-20.2 35.9-43.2 63.4-65.4 90-35.8 42.8-66.7 79.8-71.1 136.9-2.7 34.8 10.9 54.5 28.1 79.4 16.7 24.1 35.6 51.4 45.9 99.9 17.6 83.2-5.1 152.2-23.4 207.6-31.9 97.2-77.5 149.5-114.1 191.6-37.4 42.9-67 76.8-69.7 139.5-3.7 83.1 42.6 150.3 87.4 215.3 47.3 68.6 108.6 125.3 182.1 168.5 1.3 0.7 1.8 2.4 1 3.7-0.5 0.9-1.4 1.3-2.4 1.3z"/></g><g style="opacity:.7;mix-blend-mode:soft-light"><path class="c" d="m1725.4 1265.9c-0.7 0-1.5-0.3-2-0.9-1-1.1-0.9-2.8 0.2-3.8 125.8-112.5 185-216.8 212.4-284.5 29.7-73.3 29.7-120.6 29.7-121.1 0-1.5 1.2-2.7 2.7-2.7q0 0 0 0c1.5 0 2.7 1.2 2.7 2.7 0 1.9 0.1 48.6-29.9 122.8-27.7 68.4-87.2 173.6-213.9 286.8-0.6 0.5-1.2 0.7-1.9 0.7z"/></g><g style="opacity:.7;mix-blend-mode:soft-light"><path class="c" d="m1664.9 1509c-0.6 0-1.2-0.2-1.7-0.6-70.2-57.4-123.6-122.5-158.7-193.5-28.1-56.8-44.6-117.5-49-180.4-7.5-107.1 23.2-184.5 23.5-185.3 0.5-1.4 2.1-2 3.5-1.5 1.4 0.6 2.1 2.2 1.5 3.6-0.3 0.7-30.5 77.2-23 183.1 6.9 97.6 48.1 241.1 205.6 369.7 1.2 1 1.4 2.7 0.4 3.9-0.5 0.6-1.3 1-2.1 1z"/></g><g style="opacity:.7;mix-blend-mode:soft-light"><path class="c" d="m1550 1910.6c-1.2 0-2.3-0.8-2.6-2-0.5-1.4 0.4-2.9 1.8-3.4 185.5-54.4 282.3-153.3 330.8-226.7 52.4-79.3 61.2-146.6 61.3-147.2 0.2-1.5 1.5-2.6 3-2.4 1.5 0.2 2.6 1.5 2.4 3-0.1 0.7-9.1 69.2-62.2 149.6-49 74.2-146.7 174.1-333.8 228.9q-0.3 0.2-0.7 0.2z"/></g><g style="opacity:.7;mix-blend-mode:soft-light"><path class="c" d="m1789 799.5c-0.8 0-1.5-0.3-2-0.8-106.1-115.1-119-235.1-111.2-315.6 8.5-87.1 42.6-147.9 42.9-148.5 0.8-1.4 2.4-1.8 3.7-1.1 1.3 0.8 1.8 2.4 1.1 3.7-0.4 0.6-34 60.6-42.3 146.7-7.7 79.2 5.1 197.6 109.8 311.1 1 1.1 0.9 2.8-0.2 3.8-0.5 0.5-1.2 0.7-1.8 0.7z"/></g><path class="d" d="m1589.9 2559.1c20.1 2.8 66.3-8.7 77.1-16.7 71.9-53 213-143.5 232.8-235.9 3.4-15.8-62-49.4-67.8-66.3-36.5-31.5-51.2-40.2-71.1-87.2-59-138.8 206.2-295.6-13-437-160.5-103.6-325.7-84-231.4-351.7 94.2-267.6 15.1-824.5-325.5-713.7-195.5 63.5-91.7 341.9-224.1 489.5-125.7 140.3-93.7 293.3 52.1 438.6 145.8 145.3 32.8 194.8-60.1 335.5-111.6 169 164.9 280.7 296.9 321.4 106.4 32.8 355 188 334.1 323.5z"/><g style="opacity:.7;mix-blend-mode:soft-light"><path class="e" d="m1778.8 2431.6l2.8-3.2c-498.3-439.6-681.8-1127.3-490.8-1839.4l-4.2-1.2c-90.5 337.6-96.7 682.7-18 998.2 82.7 331.8 259.1 624.1 510.2 845.6z"/><path class="e" d="m904.5 1979.1c181.5-8.6 460.4 66.8 621.6 168.1l2.3-3.7c-161.9-101.7-441.9-177.4-624.1-168.7z"/><path class="e" d="m1682 2344.2l3.6-2.3c-53.2-83.5-62.1-190.6-26.5-318.5 26.1-93.7 75-196.2 145.5-304.6l-3.6-2.3c-70.7 108.7-119.9 211.6-146.1 305.8-35.9 129-26.8 237.4 27.1 321.9z"/><path class="e" d="m1259.1 1540.8l3.8-2.1c-92.1-162.5-269-248-401.1-291.1l-1.4 4.1c131.4 42.9 307.3 127.8 398.7 289.1z"/><path class="e" d="m1213.1 1115.7l4.3 0.8c41.2-206.3 206.8-352.5 301.9-421.2l-2.6-3.5c-95.5 69.1-262.1 216.1-303.6 423.9z"/></g><path class="f" d="m3297.5 3040.7l-2354.7-20.5v60.6c0 16.5 10.3 30.5 24.2 33l665.8 119.5c7.9 1.4 16 1.8 23.9 1.1l1615.2-136.2c14.4-1.2 25.6-15.3 25.6-32.2z"/><path class="g" d="m2539.5 2942.3l-1570.7 111c-28.1 2-51-19.1-51-47.1v-1122.9c0-28.1 22.9-50.8 51-50.8h1570.7c23.1 0 41.9 20.6 41.9 45.9v1015.1c0 25.3-18.8 47.2-41.9 48.8z"/><path class="h" d="m2564.5 2942.3l-1570.7 111c-28.1 2-51-19.1-51-47.1v-1122.9c0-28.1 22.9-50.8 51-50.8h1570.7c23.2 0 41.9 20.6 41.9 45.9v1015.1c0 25.3-18.7 47.2-41.9 48.8z"/><path class="i" d="m2515.6 2870.7l-1463 96.5c-22.8 1.5-41.4-15.9-41.4-38.7v-983.1c0-22.9 18.6-41.5 41.4-41.6l1463-6.1c19.1-0.1 34.6 16.8 34.6 37.6v895.4c0 20.9-15.5 38.8-34.6 40z"/><path class="c" d="m1834.6 1863.2c0 10.5-8 19-18 19-10 0-18.1-8.4-18.1-18.9 0-10.5 8.1-18.9 18.1-18.9 10-0.1 18 8.4 18 18.8z"/><path class="j" d="m2186.1 2634.3c-121.1-65.1-216.3 17.4-308.2-64-55.7-49.4-28.4-86.2-96.9-160-75.9-81.8-125.4-54.3-201.6-127.8-96.5-93.1-48.3-165.4-131.4-232.2-100.8-81-209.5-6-305.5-83.7-41.4-33.5-64.1-82.3-75.9-134.1h-93.9c-16.5 0-29.9 13.4-29.9 29.8v1164c0 16.4 13.4 28.8 29.9 27.6l1600.8-113.6c7.8-0.5 14.8-5.1 19.3-11.8-117.2-4.2-189.2-43.5-235.2-84.1-90-79.5-74.4-157.8-171.5-210.1z"/><path class="k" d="m2525.3 2937.3l-1582.5 116.8 690 123.8c7.9 1.4 16 1.8 23.9 1.1l1640.8-138.3-747-102.6c-8.3-1.2-16.8-1.5-25.2-0.8z"/><path class="l" d="m1173.8 3057l1317.4-98.7 407.8 55.6-1306.1 105.5z"/><path class="c" d="m2793 1518.4l-1230.2-30.5c-34.7-0.9-63 28.2-63 65v249.4c0 36.8 28.3 66.6 63 66.6l1230.2-0.4c29.2 0 52.8-27.2 52.8-60.7v-227.3c0-33.6-23.6-61.4-52.8-62.1z"/><path class="b" d="m2443.2 1625.1l-823.8-13.8v-40.7l823.8 16z"/><path class="b" d="m2443.2 1689.2l-823.8-10.1v-40.7l823.8 12.3z"/><path class="b" d="m2081.4 1750.4l-462-3.6v-40.6l462 4.8z"/><path class="m" d="m2988.9 1689.8c0 141.9-99.4 257.6-224 258.3-126.8 0.8-231.4-117.5-231.4-264.1 0-146.7 104.6-262.3 231.4-258.3 124.6 3.9 224 122.1 224 264.1z"/><path class="n" d="m2964 1689.5c0 126.1-88.4 228.8-199.1 229.2-112.4 0.4-204.9-104.5-204.9-234.4 0-129.9 92.5-232.4 204.9-229.1 110.7 3.2 199.1 108.1 199.1 234.3z"/><path class="o" d="m2763.5 2449.8l-1230.2 51.8c-34.7 1.5-63 32.5-63 69.3v249.3c0 36.8 28.3 64.8 63 62.4l1230.2-82.7c29.2-2 52.8-30.8 52.8-64.3v-227.3c0-33.5-23.6-59.7-52.8-58.5z"/><path class="c" d="m2413.7 2579.9l-823.7 41.3v-40.6l823.7-39.2z"/><path class="c" d="m2413.7 2644l-823.7 45v-40.7l823.7-42.8z"/><path class="c" d="m2052 2729.5l-462 27.3v-40.7l462-26.1z"/><path class="p" d="m2959.4 2608c0 142-99.3 264.3-223.9 273.4-126.9 9.3-231.5-102-231.5-248.7 0-146.6 104.6-269.2 231.5-273.7 124.6-4.4 223.9 107.1 223.9 249z"/><path class="n" d="m2934.6 2609.4c0 126.2-88.5 234.7-199.1 242.6-112.5 7.9-205-90.8-205-220.7 0-129.9 92.5-238.6 205-242.9 110.6-4.1 199.1 94.8 199.1 221z"/><path class="c" d="m932.4 2000.2l1330.2-11.5c31.5-0.3 56.9 27.7 56.9 62.5v236c0 34.8-25.4 63.8-56.9 64.9l-1330.2 44.9c-37.7 1.3-68.4-28.7-68.4-67v-259.8c0-38.4 30.7-69.7 68.4-70z"/><path class="b" d="m1359.1 2120.6l851.6-14.2v-39.1l-851.6 11.9z"/><path class="b" d="m1359.1 2189.6l851.6-18.1v-39.1l-851.6 15.8z"/><path class="b" d="m1757 2248.3l453.7-11.7v-39l-453.7 10.4z"/><path class="q" d="m672.8 2197c0 165.9 133.7 295.1 295.5 288.7 158.6-6.2 284.9-140.8 284.9-300.8 0-159.9-126.3-289.2-284.9-288.9-161.8 0.3-295.5 135.1-295.5 301z"/><path class="n" d="m706.6 2196.3c0 146.9 118.3 261.6 261.7 256.2 140.9-5.3 253.3-124.7 253.3-266.9 0-142.2-112.4-257-253.3-256.4-143.4 0.6-261.7 120.2-261.7 267.1z"/><path class="r" d="m946.5 1855c-54.1 33.2-119.8 24.4-249.1 5.4-124.8-18.4-187.2-27.5-220.1-66.9-59.3-70.9-42.5-197.8 5.3-281 69.3-120.8 175.4-100 222.9-212.4 42.8-101.2-27.5-154.7 16.3-227.4 62.9-104.4 282.4-117.7 435.8-40.6 73.9 37.1 194.4 126.4 181.4 213.8-11.7 78.5-127.7 134.7-251.8 194.9-102.5 49.8-163.4 60.5-189.5 121.8-23.9 56.4-6.4 126.7 10.9 130 12 2.2 18-29.4 48.7-40.6 26.6-9.8 64.1-1.4 78.5 18.9 27.4 38.8-16.4 139.2-89.3 184.1z"/><path class="s" d="m1197.6 1504c0 0 181 78.9 150.5 280.7-30.5 202.7-303.3 140.1-303.3 140.1l-16.4-141.7c0 0 208.7 10 182.7-121.3-28.4-143.4-52.6-145.5-52.6-145.5z"/><path class="t" d="m952 3151.4c0 0-2.4 19.1-0.8 25.3 1.6 6.2 55.6 6.3 73.8 2.6 18.2-3.8-10.9-20.3-22.5-22.9-11.6-2.7-50.5-5-50.5-5z"/><path class="u" d="m979.2 3117.7l-5.7 38.3c0 0-14.5 7.9-21.5 1.9l-0.8-39.7z"/><path class="v" d="m668.8 3140.7c0 0 11.9 7.8 8.7 18.6-3.2 10.9-31 55.5-50.9 69.2-19.9 13.8-13.7-11.9-7.9-28 5.8-16.1 20.6-51.7 26.4-57.9 5.8-6.3 23.7-1.9 23.7-1.9z"/><path class="w" d="m690.2 3096.6c-5.8 16.4-11.3 30-15.6 40-9.6 22.3-14.9 30.8-20.8 38.3-5.2 6.5-17.5 20.5-20.8 18.6-3.3-1.9 5.7-18.5 23-66.2 2.5-6.9 10.4-28.9 10.4-28.9z"/><path class="x" d="m1091.5 2414.2c3.9 39.1 7.6 99.7 2 173.8-7.3 96.5-26.1 158.4-49.7 262.6-14.5 63.9-34.1 157.9-51.8 275.3-4.2 2.7-16.3 10-32 8.9-8.7-0.6-15.3-3.6-19.2-5.8-47.1-142.2-33.1-233.5-10.4-291.2 9.6-24.6 21.3-44.1 27.6-81.3 8.2-49-2-75.7-16.6-187.7-10.4-80-8.6-92.5-1.6-104.8 27.6-49.2 111.5-51.2 151.7-49.8z"/><path class="y" d="m931.4 2436.8c-28.8 152-57.2 232.8-78.8 278.9-5.3 11.3-23.1 48.2-40 100.6-14.9 46.5-21.2 80.4-24.4 95.4-10.1 47.3-35.1 117.2-102.9 212-0.8 0.6-12.4 8.1-23.6 3.1-5.6-2.5-8.4-7-9.5-9.1 8.9-86.8 19.2-159.8 28-216.1 1.9-11.8 10.1-63.4 22.9-131.7 5-26.7 12.4-65.7 21.2-105.9 10.9-49.9 27.6-117.8 53.3-199.2q77.4-14.1 153.8-28z"/><path class="z" d="m930.4 2837.8c9.6-24.6 21.3-44.1 27.6-81.3 8.2-49-2-75.7-16.6-187.7-10.4-80-8.6-92.5-1.6-104.8 15-26.8 46.7-39.5 79-45.4-0.5 1.7-0.9 3.4-1.2 5-17 79.4 47.4 124.6 18.4 212.3-14.3 43.3-37.2 54.3-42.5 104.1-5 46.7 13.1 55.3 9.2 97.7-5.7 63.4-49.8 81.6-61.4 130.8-7.4 32-1.1 77.6 53.4 139.9-0.9 5.8-1.8 11.6-2.7 17.5-4.2 2.7-16.3 10-32 8.9-8.7-0.6-15.3-3.6-19.2-5.8-47.1-142.2-33.1-233.5-10.4-291.2z"/><path class="A" d="m1150.1 1829.7c-4.2-6.7-17.5-25.3-74.4-39.2-28.6-7-81.8-19.2-150.9-4.7-95.8 20.1-156.1 78.4-178.9 103.1 18.7 12.1 70 49.1 95.3 119.2 7.8 21.8 31 96.1-2.1 166.5-19.2 40.8-53.2 71.9-79.1 95.6-39.1 35.8-59.4 41.7-72.5 73.2-14.4 34.5 0.1 50.6-17.7 74.4-19.2 25.7-41.8 14.9-74.5 41.4-33.7 27.4-21.7 48.3-52.4 78.4-44.9 43.9-104.7 32.8-107.5 51.9-2.4 16.5 40.2 36.6 76.2 43.9 70.9 14.3 132.2-18.2 150.3-28.1 50-27.4 41.4-43.2 79.4-64 63.1-34.4 106-0.9 247.3-3.3 75.4-1.3 113.3-2.5 134-29.3 18.8-24.4 8.9-49.9-2.4-161.2q0 0 0 0c-3.6-37.3-11.3-115.3-11.3-159.8 0-26.4 8.9-69.6 26.7-155.8 1-5.1 10.6-51.6 18.4-113.6 6.9-55.8 5.9-72.9-3.9-88.6z"/><g style="opacity:.3;mix-blend-mode:multiply"><path class="B" d="m542.9 2537.6c30.7-30.1 18.7-51 52.4-78.4 32.7-26.5 55.3-15.7 74.5-41.4 17.8-23.8 3.3-39.9 17.7-74.4 13.1-31.5 33.4-37.4 72.5-73.2 25.9-23.7 59.9-54.8 79.1-95.6 33.1-70.4 9.9-144.7 2.1-166.5-25.3-70.1-76.6-107.1-95.3-119.2 1.8-2 3.9-4.2 6.2-6.5 122.2 16.7 192.5 87 201.2 107.8 20 48-11.7 66-12.5 205.2-0.4 66.5 6.7 92.6-14.6 120.9-24.4 32.6-52.6 23.6-88.2 66.4-27.4 33.1-23 53.3-48.7 67.8-27.7 15.6-45.4-0.8-76.8 7.1-52.8 13.2-64.2 74.6-99.3 109.4-26.7 26.5-76.2 46.5-174.9 31.9-2.3-3.2-3.4-6.3-2.9-9.4 2.8-19.1 62.6-8 107.5-51.9z"/></g><path class="C" d="m963.8 1710.7c0 0-6 49.1-23.9 60.2-17.9 11.2-47 25.8-50.2 29.8-3.2 4 110.8 16.8 166.7-11.7-18.4-4-23.4-5.5-23.4-5.5-5-1.5-14.3-4.2-23.7-9.7-6.4-3.7-16.7-11-26.1-24.7l0.2-27.2z"/><path class="D" d="m961.1 1728.1c0 0 11.6 16.3 29.8 9.7 16.3-5.9 6.6-48.8-6.3-53.8-4.3-1.7-12.3-1-17.6 2.3-3.7 2.3-13.7 14.8-8 28.9-4.1-1.2-7.7-0.2-8.6 1.9-1.2 2.6 2.3 6.2 3.1 7.1 2.8 2.8 6.1 3.6 7.6 3.9z"/><path class="E" d="m1169.1 1511.6l-8.1-25.3c-1.1-3.5 2.8-6.4 5.7-4.1 7 5.7 4.6 19.1 34.2-33.3 11.8-21 4.7 26.8-1.8 40.3-4.5 9.1-4.2 13.9-8.1 16.9-6.5 4.7-14.7 9.4-21.9 5.5z"/><path class="F" d="m876.9 2034.2c12 25.7-43.4 86.6-105.3 116.3-12.7 6.1-104.4 50.1-145.6 10.2-34.2-33.2-12.1-103.2-4.3-128.2 38.6-122.3 155.8-184.2 204.5-206.2 36.1 91 14.8 131.6 6.4 144.3-8.7 13.3-33.2 41.4-59.3 66.2-18.4 17.5-29.9 26.1-28.4 28.8 2 3.3 23.6-3.3 106.9-45 9.6 1.4 21 4.9 25.1 13.6z"/><path class="c" d="m1078.6 1883.2l-143.8 14c-3.1 0.3-5.7 2.4-6.5 5.4l-54.4 192.8c-1.5 5.1 2.6 10 7.8 9.5l146.1-15.3c3-0.3 5.6-2.5 6.4-5.5l52.1-191.5c1.4-5-2.6-9.9-7.7-9.4z"/><path class="G" d="m983.2 2048.8c5.4-30.3-11.4-53.6 4.7-82.1 16.5-29.2 45.4-24.4 66.1-48.5 6.6-7.6 12.5-18.4 15.4-34.1l9.2-0.9c5.1-0.5 9.1 4.4 7.7 9.4l-52.1 191.5c-0.8 3-3.4 5.2-6.4 5.5l-73.9 7.7c18.9-17.4 26.7-34 29.3-48.5z"/><path class="H" d="m856 2028.4c0 0 50.3-52.5 70.7-60.3 20.4-7.8 2.3 47-9.6 54.9-12 7.8-16.6 10.9-26 12.1-9.3 1.3-9.3 1.3-9.3 1.3l-12.3 6.8c0 0-15.9-1.7-13.5-14.8z"/><path class="I" d="m2287.8 2125.4c0 0 28.1-38.3 25.2-47.8-2.9-9.5-44.6-21.1-54.4-41.3-9.7-20.3-13.6 2.2 0 21.3 13.7 19.1 13.7 19.1 13.7 19.1l16.5 8.9-18.5 24.6z"/><path class="J" d="m2306.9 2121.4c-13.8-15.3-27.1-21.4-39.3-22.1-54.1-3.4-119.7 96.4-124.2 187.8-0.3 6.6-4.1 108.8 70.9 171.1 108.2 89.9 301.9 31.9 334.2-50.3 10.6-27.1 7.7-66 7.1-72.8-3.3-43.5-19.5-75-29.2-90.9-83 28.6-187 48-219.1 6.1-23.9-31.4-33.9-78.2-0.4-128.9z"/><path class="K" d="m2974.3 2233.5c-66.1-18.8-167.8-37.9-293-23.3-73.5 8.6-136.9 26.6-187.5 45.3-7 28.8-15.2 71.1-17.1 122.4-8.7 226.7 112.4 409.6 103.4 414-6.6 3.2-51.9-105.9-73.2-99.9-24.6 6.9-20.3 168.4 44.1 200.3 18.8 9.4 25.2 7.4 118.5-13.4 62-13.8 88-17.9 119.5-10.4 42.7 10.2 62.8 18.8 79.8 8.5 16.4-9.9 17.6-40.6 18.1-93.9 0.7-82.2-1.1-137.9-1.4-157.9-1.4-91.6 18.3-163.4 43.4-255.2 15.6-57.2 32.5-103.7 45.4-136.5z"/><path class="L" d="m2687 2117.7c1.7 23.3 5.6 41.4 9 53.7 3.8 14.1 6 17.6 8.7 20.3 4 4.1 9.9 7.2 42.1 11.3 17.4 2.3 19.6 1.9 20.1 3.6 2.5 8.5-41.7 44.4-90.7 43.6-30.2-0.5-58.8-14.8-57.9-24.4 0.9-9.7 31.2-8.5 38.7-26.7 5.2-12.7-3.1-28.6-12.4-41.6 6.7-16.6 35.7-23.3 42.4-39.8z"/><path class="M" d="m2627.3 2140.9c-9.7-6.8-15.2-22.8-10.7-36.1 3.9-11.3 14-16.6 20-19.7 17.5-9.1 42.9-9.9 56.3 4.5 8 8.5 4.5 33.8 4.2 38.2-0.5 5.1-3.3 7.8-5.2 12.2-2.8 6.2-7.1 16-14 32.2-1.9-3.2-4.6-7.2-8.1-11.2-1.4-1.5-6.8-7.6-13.4-11.7-13.3-8.4-19.9-2.1-29.1-8.4z"/><path class="N" d="m2690 2156.1c0 0-5.4 25-29.7 32.5-21.7 6.8-40.6-41.7-30.3-57.5 3.4-5.3 12-10.2 20.1-10.9 4.8-0.4 6.8 1 14.6 0.2 7.2-0.8 8.8-2.2 11.3-1.3 3.2 1.3 6.7 5.9 7.2 22 2.7-5.8 7-9.3 11-8.9 0.6 0 2.4 0.5 3.7 1.8 4.7 4.5 2.1 13.6-7.9 22.1z"/><path class="O" d="m2676.1 2115.8c-0.8 1.2 3.6 4 5.6 9.5 3.9 10.8-2.6 28-13 33.3-6.2 3.1-9.3-0.3-20.3 2.6-6.8 1.9-12 4.8-15.2 6.9 0.5 13.3 7.4 24.1 16.9 26.7 10.2 2.7 19.6-5 23.6-8.2 2.6-2.2 11.1-9 13.2-20 2.1-11.4-4.7-15.2-0.8-23.8 1.9-4.4 5.4-7.3 7.3-15 0.5-2 0.7-3.8 0.8-5-7.4-3.9-17-8.7-18.1-7z"/><path class="P" d="m2642.4 2169.6c0 0 5.4 0.7 13.2-2.8 0.3-0.1 0.8-0.2 0.9 0 0.4 0.7-3.5 6.2-8.7 6.6-3.6 0.3-7.3-2-7.1-3 0.1-0.4 0.9-0.6 1.7-0.8z"/><path class="Q" d="m2586.2 2839.6c45.6-25.9 44-68.4 86.4-90.9 60-31.8 128.2 19.3 138.1 2 10.2-18-70.6-61.1-61.5-113.3 7.2-41.4 62.8-39.7 90.7-97.8 26.3-55-2.1-100.9 22-121.3 8.7-7.3 24.1-11.2 53.9 0-18.5 70.2-31.4 132-30.3 206.9 0.3 20 2.1 75.7 1.4 157.9-0.5 53.3-1.7 84-18.1 93.9-17 10.3-37.1 1.7-79.8-8.5-31.5-7.5-57.6-16-119.5-2.2-93.4 20.7-99.7 35.4-118.5 26-12.3-6.1-18.4-16.7-22.9-38 19.1-0.1 39.1-3.9 58.1-14.7z"/><path class="R" d="m2925.1 2621.3l-21.8 0.9c0 0-24.5-18.9-35.4-16.5-10.9 2.4-27 12.2-28.9 14.1-2 1.9 6.3 10.5 14.2 8.8 8-1.7 25.9 1 29.3 8.2 3.3 7.1 17.2 10.2 19.4 5.6l29.4 3.1z"/><path class="S" d="m2918.2 2613.8c-0.9 19.2 3.3 31.8 10.1 40 29.7 36.2 125.6 9.9 180.9-48.1 40.6-42.6 60.8-104.4 58.5-157.7-4.5-104-96.7-199.2-232.7-224.5q-27.5 99.2-55.1 199c84.2-6.1 120.5 55.1 114.4 104-4.6 36.5-26.4 74.3-76.1 87.3z"/><path class="T" d="m2716.7 1319.8c-34.5 9.4-78.8 48.9-102.1 70.6-54 50.5-156.3 224.7-96.5 288.5 40.4 43.2 110.9 25.9 141.8-16.6 22.7-31.1 8.9-59.9 4.2-116.6-5.2-61.1 16.6-166.9 52.6-225.9z"/><path class="U" d="m2687.7 1335.6c-23.9 27.7-32.3 25-50.9 63.7-28.2 58.5-7.5 126.6-4.5 199.6 3.2 80 0.1 228.8-40.2 305.8-0.7 1.3-1 1.6-1 3.6 1.3 81.7 378.6 22.8 378-6.3-2.9-144.8-95.6-464.3-72.5-569-10.5-0.6-31.2-12.4-39.7-15.1-36.4-11.6-69.4-14.5-104.1-11-12.7 1.3-19.1 4-28.4 7.3-15.2 5.4-25 13.8-36.7 21.4z"/><path class="V" d="m2822.4 1228.7c-0.5 24.5 7.4 60.2 10.6 82.3 3.1 22.1-41.3 21.5-55.9 10.8-13.3-9.9-3.3-35 9.6-47.9 12.9-12.9 22.6-32 35.7-45.2z"/><path class="W" d="m2755.4 1218.3c-20.6-19.2-24.4-84.6-3.5-96.4 10.2-5.7 27.8 27.2 39.2 33.9 15.4 9 56.9 20 65.1 37 6.1 12.7-6.3 38.2-11.3 47.3-5.6 10.2-6.3 6.6-13.1 13.8-9.4 10-21.9 21.6-31.5 32.9-2.1-8.9-1.6-8.9-5.2-20.4-1.5-4.5-12.8-23.5-18.3-30.9-3.5-4.7-18.8-14.8-21.4-17.2z"/><path class="X" d="m2821.2 1271.5c-15.7 14.1-23.4 31.8-52 25.4-25.8-5.7-30.1-70.9-6.7-89.1 7.8-6 19.2-5.5 28.9-2.2 5.7 2 11.6 6.1 17.3 8.5 5.2 2.3 9.7 0 14.5 5.6 6 7 1.9 24-1.5 32.2 2.6-2.3 5.6-5.5 9-6.4 2.5-0.7 6.7-4.6 9-1 3.7 5.9-4.4 16.7-9.2 21-2.1 2-6.6 4.4-9.3 6z"/><path class="Y" d="m2825 1215.6c-3.5 1.9 2.7 8.7 1.8 15.2-1.8 12.5-5.8 35-23.9 36.5-10.7 0.9-22-9.2-33.3-10.8-7-1-14.7-0.9-21.6 0.7-4.6 13.4-4.7 34.8 6.9 43.7 12.6 9.5 20.8 5.1 34.1 1.7 8.9-2.3 18.7-9.7 24.3-18.3 5.8-9 10.1-18.5 15.9-27.9 3.1-5.2 7-11.8 10.7-17.2 1-1.5 2.6-3.9 3.3-5.8-3-3.1-13.1-20.5-18.2-17.8z"/><path class="c" d="m2762.2 1267c5.3 3.2 11.5 3.5 17.2 3.7 0.3 0.1 1.6-0.4 1.1 0.7-1.8 3.9-9.6 5-13.6 3.7-2.8-1-7.5-4.6-7-7.7 0.2-1.3 1.7-0.1 2.3-0.4z"/><path class="Z" d="m2721.1 1805.6c-10.2-11.7-26.5-30.3-27.4-56.1-2.5-66.4 99-91 95-144.7-3.1-41.8-65.1-38.3-100.6-113.5-6.2-13-28.6-62.3-12.3-117 6.5-21.8 17.1-37.7 25.1-47.7-4.4 3-8.7 6-13.2 9-23.9 27.7-32.3 25-50.9 63.7-28.2 58.5-7.5 126.6-4.5 199.6 3.2 80 0.1 228.8-40.2 305.8-0.7 1.3-1.1 2.2-1 3.6 9 81.2 378.6 22.8 378-6.3-0.3-17.4-2-37.4-4.6-59.2-12.8 3.6-170.7 45.8-243.4-37.2z"/><path class="a0" d="m2613.6 1548.8c-21.2-1.4-6.6-13.9-13-12.2-4 1.1-102.6 96-71.4 147.5 29.7 48.9 151.7 17.2 194.3 2.4 23.5-8.2 93.1-33.5 135-100.6 3.8-6 6.6-11.2 8.5-14.8-91.9-14-136.3-17.8-159.6-18.4-15-0.4-30.2 0.6-93.8-3.9z"/><path class="a1" d="m2649.1 1539.8c2.7 21.2 13.6 86.9 68.4 141.1 10.9 10.7 84.1 80.8 185.7 64.1 78.5-12.9 147.8-73.3 163.7-149.2 30.9-147.8-154.9-285.1-198.2-263.9-29.2 14.3-37.5 123.2 6.2 179.3 9.5 12.1 27 29.1 24.3 49.8-2.6 19.9-22.5 32.2-33.7 38.9-53.5 32-171.7-55.2-203.3-62.8-2.3-0.2-4-2.4-13.1 2.7z"/><path class="a2" d="m2934.7 1511.8c-18.2-19.3-39.4-29.7-63.3-37.8-6-1.8-11.9-3.4-17.9-5.2 4.9 15.6 11.9 30.3 21.4 42.4 9.5 12.1 27 29.1 24.3 49.8-2.6 19.9-22.5 32.2-33.7 38.9-53.5 32-171.7-55.2-203.3-62.8-2.3-0.2-4-2.4-13.1 2.7 0.7 5.3 1.9 13.4 4.1 23.5 44.9-13.6 93.2 32.4 131.5 54.9 49 28.8 109.6 47.7 156.7 11.5 35.1-26.3 22.4-86.4-6.7-117.9z"/><path class="a3" d="m2957.7 1366.4c-8.2 28-9.2 56.5 7.3 84.2 23.6 38.9 49.9 71.5 59.5 114.5 8.5 36.5 3.4 72.1-6.8 107.5-3 9.5-7.5 17.6-13.2 24.9 31.2-26.6 54-62 62.4-101.7 19.5-93.1-46.5-181.6-109.2-229.4z"/><path class="a4" d="m2858.5 1585.9c2.5 6.2 15 12.7 21.1 12.1 10.2-1 17.3-7.9 23.7-10.9 5.6-2.6 18.3-6.1 19-10.7 1.5-8.6-12.3-11.3-20.5-12.3-11.3-1.4-23.5 1.7-34.8 7-2.9 5-6 9.9-8.5 14.8z"/><path class="a5" d="m2630.3 1550c41 6.5 50.5 3.9 51.6 0.3 1.4-4.6-9.6-14.2-21.4-16-11.9-1.9-24.1 4.3-30.2 15.7z"/><path class="a6" d="m2787.3 1326.6q2.2 5 4.9 10.3 1.2 2.3 2.4 4.5 4.9 0.8 9.8 1.7 3.1-7.2 6.3-14.3c-3.3 0.3-7.3 0.4-11.9 0-4.4-0.4-8.3-1.3-11.5-2.2z"/><path class="a7" d="m2794.7 1340.5c0 0-11.4 111.6-46.3 128.2 0.9 3.6-0.4 32.8-0.4 32.8 0 0 32.5-8.6 34.3-7.9 1.8 0.7 39.8-60.2 22.1-150.5z"/><path class="a8" d="m2519.3 691.8l-562.9-34.5c-41.3-2.1-75 30.2-75 72.2v525.8c0 42 33.7 76.3 75 76.7l31.3 0.3v129.5c0 19.4 23 28.9 42 7.4l117.8-135.4 371.8 1.2c34.7 0.3 62.8-30.5 62.8-68.8v-501.9c0-38.2-28.1-70.7-62.8-72.5z"/><path class="a9" d="m2537.1 1321.2l-562.8-2.9c-41.4-0.4-75-34.7-75-76.7v-525.8c0-42 33.6-74.4 75-72.2l562.8 34.5c34.8 1.8 62.8 34.3 62.8 72.5v501.9c0 38.3-28 69.1-62.8 68.7z"/><path class="aa" d="m1920.7 1255.7v-552.8c0-22.3 17.9-39.6 39.9-38.4l588 34c18.5 0.9 33.5 18.2 33.5 38.6v527.8c0 20.4-15 36.8-33.5 36.6l-587.9-4.9c-22.1-0.2-40-18.5-40-40.9z"/><path class="ab" d="m2005.6 1448.1v-156.1l182.4 2-146.2 168.1c-12.6 14.5-36.2 5.4-36.2-14z"/><path class="c" d="m2155.5 989.5c0 23.4-19.8 42-44.2 41.5-24.5-0.6-44.5-20.2-44.5-43.8 0-23.6 20-42.2 44.5-41.5 24.4 0.7 44.2 20.3 44.2 43.8z"/><path class="c" d="m2304.3 993.3c0 23.2-19.3 41.5-43.2 41-23.9-0.5-43.4-19.9-43.4-43.2 0-23.4 19.5-41.7 43.4-41 23.9 0.6 43.2 20 43.2 43.2z"/><path class="c" d="m2449.6 997c0 22.9-18.8 41.1-42.1 40.6-23.4-0.6-42.5-19.7-42.5-42.8 0-23 19.1-41.2 42.5-40.5 23.3 0.7 42.1 19.8 42.1 42.7z"/><g style="opacity:.7"><path class="ac" d="m2989.4 785.7l-850.5-31.7c-19.9-0.7-36 14.6-36 34.3v42.7c0 19.6 16.1 36.1 36 36.8l850.5 29.5c19.1 0.7 34.6-14.4 34.6-33.6v-41.8c0-19.3-15.5-35.5-34.6-36.2z"/><path class="c" d="m2998.3 874.7l-771.6-27.2v-66.9l771.6 28.4z"/><path fill-rule="evenodd" class="c" d="m2185.3 820.6l21.3 28c1.2 1.6 0.9 3.8-0.6 5-1.6 1.1-3.9 0.7-5.1-0.8l-21.3-28c-12.4 6.9-28.7 3.5-37.8-8.4-9.8-12.9-7.5-30.9 5.2-40.2 12.7-9.3 30.9-6.3 40.7 6.6 9.1 11.9 7.8 28.1-2.4 37.8zm-0.8-35.5c-8.4-11.1-24.1-13.6-35-5.6-11 7.9-12.9 23.4-4.5 34.5 8.5 11.1 24.2 13.6 35.1 5.7 10.9-8 12.9-23.5 4.4-34.6z"/></g></svg>