<svg version="1.0" xmlns="http://www.w3.org/2000/svg" width="682.667" height="682.667" viewBox="0 0 512 512"><path d="M106.7 42.6c-.1.1-3.3.4-7.2.8-28.4 2.5-53.3 27.1-56.2 55.4-.8 8.6-.8 223 0 229.8 2.8 21.6 18.1 41.6 38.4 50.2 12.4 5.3 8.1 5.1 145 5.2H354l40.7 41c27.8 27.9 42 41.4 44.5 42.4 4.8 2 13.1 2 17.3.1 4.4-2.2 9.3-7.1 11.2-11.4 1.4-3.2 1.6-22.1 1.6-177.6 0-95.7-.3-176.7-.6-179.9-.9-8-2.1-11.6-7-21.5-8.8-17.8-27.9-31.3-47.5-33.7-4.4-.5-306.8-1.3-307.5-.8zM414 87.1c4.4 2 8.3 5.9 10.7 10.7 1.7 3.5 1.8 10.1 1.9 150.9 0 131-.1 147.1-1.4 146-.9-.6-12.2-11.9-25.2-25s-25.4-24.7-27.6-25.9l-3.9-2.2-133-.2c-122.4-.1-133.3-.3-137-1.8-5-2.1-8.1-5-10.8-10.1l-2.2-4-.1-110.2c0-81.5.3-111.4 1.1-114.8 1.5-5.8 7.3-11.9 12.9-13.7 3.3-1.1 32.7-1.3 157.6-1.3 137.5.1 153.9.2 157 1.6z"/><path d="M139.5 152c-3.7 1.9-5.8 3.9-8.2 7.9-2.9 4.8-3.2 6-2.9 11.7.6 9.6 5.6 16.3 14.5 19.3 2.5.8 33.3 1 115 .9l111.6-.3 4.2-2.8c6.2-4 9.6-9.5 9.9-16.4.4-9.2-3.8-16.7-11.5-20.5l-4.6-2.3-111.5-.1H144.5l-5 2.6zM146.5 235c-10.1 1.4-17.7 9.8-18.1 19.9-.3 9.2 3.7 16 12.1 20.4 3.9 2 5.2 2 70.9 2.1 44.9.1 68.4-.3 71.2-1 15.9-4 21.2-24.9 9.2-36.1-6.1-5.7-4.6-5.6-75.8-5.7-36-.1-67.3.1-69.5.4z"/></svg>